<?xml version="1.0" standalone="no"?>
<!DOCTYPE svg PUBLIC "-//W3C//DTD SVG 20010904//EN"
 "http://www.w3.org/TR/2001/REC-SVG-20010904/DTD/svg10.dtd">
<svg version="1.0" xmlns="http://www.w3.org/2000/svg"
 width="300.000000pt" height="283.000000pt" viewBox="0 0 300.000000 283.000000"
 preserveAspectRatio="xMidYMid meet">
<metadata>
Created by potrace 1.10, written by Peter Selinger 2001-2011
</metadata>
<g transform="translate(0.000000,283.000000) scale(0.100000,-0.100000)"
fill="#000000" stroke="none">
<path d="M1281 2425 c-105 -24 -191 -55 -291 -106 -294 -151 -495 -413 -571
-744 -34 -153 -31 -340 9 -497 83 -323 290 -580 584 -725 143 -71 324 -113
483 -113 99 0 265 27 356 59 425 146 718 533 745 981 31 514 -307 987 -806
1126 -82 23 -118 27 -270 30 -127 3 -192 0 -239 -11z m549 -64 c200 -58 400
-200 510 -362 97 -141 149 -290 171 -483 10 -89 9 -122 -5 -223 -40 -273 -150
-491 -346 -684 -142 -140 -303 -233 -495 -285 -89 -24 -118 -27 -255 -27 -146
0 -161 2 -260 32 -222 69 -393 195 -514 381 -100 155 -145 299 -153 497 -15
339 102 630 349 869 159 155 334 251 538 295 119 26 352 21 460 -10z m-702
-40 c-128 -65 -150 -79 -258 -167 -215 -176 -367 -444 -410 -724 -24 -156 -28
-162 -29 -55 -1 97 27 251 61 340 117 305 356 537 663 640 104 35 101 31 -27
-34z m1438 -1039 c-21 -440 -312 -815 -739 -956 -82 -27 -86 -17 -7 17 153 68
245 131 366 251 161 160 272 350 325 556 18 72 39 219 40 290 l1 65 10 -55 c5
-30 7 -106 4 -168z"/>
<path d="M1931 1460 c0 -19 3 -29 6 -22 3 7 24 12 53 12 l48 0 -5 -87 c-2 -49
-5 -100 -7 -115 -2 -26 0 -28 33 -28 l36 0 -3 115 -3 115 43 0 c24 0 49 -5 56
-12 9 -9 12 -4 12 23 l0 34 -135 0 -135 0 1 -35z"/>
<path d="M786 1476 c6 -15 -101 -236 -120 -248 -6 -4 11 -8 37 -8 31 0 46 4
42 11 -4 5 -4 21 -1 35 6 22 11 24 75 24 63 0 69 -2 80 -26 6 -14 9 -30 6 -35
-4 -5 15 -9 41 -9 44 0 46 1 32 18 -27 30 -120 224 -114 238 4 11 -5 14 -39
14 -34 0 -43 -3 -39 -14z m47 -68 c3 -7 12 -30 21 -50 l16 -38 -49 0 -50 0 22
50 c23 51 31 59 40 38z"/>
<path d="M1015 1355 l0 -137 117 4 c129 3 143 9 154 65 5 26 2 36 -19 55 -25
23 -25 24 -6 36 24 15 24 53 0 83 -18 22 -27 24 -133 27 l-113 4 0 -137z m199
79 c12 -12 13 -20 6 -35 -9 -16 -22 -19 -80 -19 l-70 0 0 35 0 35 64 0 c45 0
69 -5 80 -16z m12 -115 c19 -21 18 -21 -5 -40 -17 -14 -39 -19 -87 -19 l-64 0
0 40 0 40 68 0 c57 0 72 -4 88 -21z"/>
<path d="M1328 1478 c8 -8 12 -50 12 -123 0 -73 -4 -115 -12 -123 -9 -9 -3
-12 28 -12 l39 0 -3 60 -4 60 82 0 82 0 -4 -60 -3 -60 35 0 35 0 0 135 0 135
-35 0 -35 0 3 -55 4 -55 -82 0 -82 0 4 55 3 55 -39 0 c-31 0 -37 -3 -28 -12z"/>
<path d="M1757 1471 c3 -11 -19 -66 -54 -135 l-60 -116 39 0 c22 0 37 4 33 9
-3 5 0 21 6 35 11 24 17 26 75 26 54 0 65 -3 74 -21 7 -11 9 -27 6 -35 -4 -11
5 -14 38 -14 l43 0 -63 122 c-45 89 -59 126 -52 135 8 10 -1 13 -40 13 -44 0
-50 -2 -45 -19z m53 -64 c0 -7 9 -29 20 -50 l20 -37 -50 0 c-27 0 -50 2 -50 4
0 2 9 24 20 50 20 44 40 61 40 33z"/>
<path d="M2225 1355 l0 -135 40 1 c22 0 34 3 28 6 -10 3 -13 39 -13 128 0 89
3 125 13 128 6 3 -6 6 -28 6 l-40 1 0 -135z"/>
</g>
</svg>
